<svg version="1" xmlns="http://www.w3.org/2000/svg" width="346.667" height="346.667" viewBox="0 0 260.000000 260.000000"><path d="M100.6 6c-.2.3-.2 2.2-.2 4.2.1 2.1-.2 3.8-.6 3.8-.4 0-.5.6-.3 1.2.9 2.2 1.1 10.8.3 10.8-.4 0-.5.6-.2 1.4.9 2.4 1.1 10.6.2 10.6-.4 0-.5.6-.3 1.2.9 2.2 1.1 10.8.4 10.8-.4 0-.4 1.3.1 3 .8 2.8.6 3.1-4.1 5.6-2.7 1.5-4.9 3.1-4.9 3.6s-.4.7-.9.4c-.5-.3-1.2.1-1.5 1-.4.9-.9 1.4-1.2 1.1-.7-.6-1.5.1-10.9 9.2-8 7.7-13.1 13.8-12.8 15.2.2.5-.2.9-.7.9-.6 0-1.5 1-2 2.2-.6 1.3-1.4 3-1.9 3.8-1.8 2.9-7.2 14.7-7.6 16.6-.2 1-.4 2-.5 2.1-.2.2-.3.6-.5 1-.1.5-.5 1.5-.8 2.3-.3.8-.8 2.8-1.1 4.5-.3 1.6-.8 4.3-1.2 6-.3 1.6-.7 4.5-.7 6.2 0 1.8-.3 3.3-.6 3.3-.4 0-.6 2.2-.5 5 .2 2.7-.2 5.2-.7 5.6-.5.3-.6 1.1-.2 1.7.4.7.8 3.4 1 6.2.3 8.3 1.7 21 2.3 21 .2 0 1 3.5 1.5 6.9.2 1.5 1 3.5 1.7 4.4.7.8 1.1 1.7.9 1.9-.1.2.1 1.6.7 3.1 1.6 4.3 2.3 6.7 2.2 7.1-.1.2.2.7.7 1 .5.3 2.2 3 3.8 5.8 1.5 2.9 3.3 5.3 3.8 5.3.6 0 .8.3.4.6-.3.3.2 1.5 1.1 2.6 2.5 3.1 14.4 15 17.2 17.3 4.2 3.3 15.4 9.5 17.1 9.5.9 0 2.2.7 2.9 1.5.7.9 1.5 1.3 1.8 1 .3-.3 1.1 0 1.9.6.7.6 1.3.9 1.3.5 0-.3 1.2-.1 2.8.5 1.5.6 4.1 1.3 5.7 1.6 1.7.3 3.3 1 3.7 1.6.6.9.8.8.8-.1s.5-1 1.8-.4c2.1 1.1 8.9 1.5 21.2 1.4 8.5 0 18.5-.7 18.5-1.3 0-.1 1.6-.3 3.5-.5 3.4-.3 7.5-1.1 7.5-1.4 0-.2 1.6-.5 5.7-1.3 1.4-.3 3.5-1 4.7-1.6 1.1-.6 2.4-1 2.8-.9.4.1 3.3-.9 6.3-2.2 3-1.4 5.8-2.4 6.3-2.2.4.1.7-.2.7-.8 0-.6.3-.9.8-.8.4.2 2.2-.6 3.9-1.7l3.3-1.9-.3-44.9-.2-44.8h-27c-14.8 0-29.8.1-33.3.1-6 0-6.3.1-6.2 2.2.1 1.3.1 2.5 0 2.8-.6 1.5-.6 5 0 5 .4 0 .6 1.5.3 3.3-.9 7.6-1.8 7.2 21.2 7.2 11.4 0 21 .2 21.3.5 1 .7.9 20 0 19.4-.4-.3-.8-.2-.8.3 0 .4-2.1.7-4.7.6-2.7-.1-5.9-.2-7.3-.3-2.6-.1-15.5-.1-18-.1-2.5.1-14.4 0-15.5-.1-.5 0-1.4.1-2 .2-.5.1-3.1.2-5.6.1-3.8-.1-4.8-.5-5.2-2.1-.3-1.1-.2-2 .1-2 .4 0 .7-1.1.7-2.5s-.4-2.5-.9-2.5-.3-.7.4-1.5.8-1.5.3-1.5-.9-.9-.9-2 .3-2 .6-2 .5-1.2.4-2.8c-.1-1.5-.3-2.7-.4-2.7-.1 0-.2-1.5-.3-3.3-.1-1.7 0-3.2.3-3.2s.5-1.1.5-2.5-.4-2.5-.9-2.5-.3-.7.4-1.5.8-1.5.3-1.5-.9-.9-.9-2 .3-2 .6-2 .5-1.2.4-2.8c-.1-1.5-.3-2.7-.4-2.7-.1 0-.2-1.5-.3-3.3-.1-1.7 0-3.2.3-3.2s.5-1.1.5-2.5-.4-2.5-.9-2.5-.3-.7.4-1.5c.7-.9.8-1.5.2-1.5-.6 0-.9-.8-.7-1.8.2-.9.4-1.7.5-1.7.7 0 .5-8.3-.2-9.7-.4-.9-.5-1.9 0-2.2.4-.2.6-5.3.5-11.3-.2-5.9-.3-11.5-.3-12.3.4-20.1-.5-17.8 7.5-19.7 4.5-1 23.5-1 23.5 0 0 .8.3.8 1.1 0 .6-.6 2.3-.8 4.5-.3 1.9.4 3.4.6 3.4.3s.6 0 1.3.6c.8.6 1.6.9 1.8.6.3-.2 2.2 0 4.3.6 2.1.6 4.8 1.3 6 1.5 1.1.3 2.6.6 3.1.8.6.1 2 .8 3.3 1.4 1.2.7 2.2 1 2.2.7 0-.4 2.6.7 5.7 2.4s6.3 3.1 7 3.1c.7 0 1.3.4 1.3 1 0 .5.7 1 1.6 1 1.1 0 1.5-.8 1.3-2.8-.2-1.5 0-3.3.4-4 .5-.6.5-1.2 0-1.2-1 0-.9-5.2.1-6.8.4-.7.4-1.2-.1-1.2-.4 0-.7-2-.6-4.6.1-3.5-.2-4.6-1.5-5.1-.9-.3-3-1.1-4.7-1.8-4.9-2.1-7.3-2.8-13-4-5.1-1-6.9-1.4-9.7-2-1.3-.3-4.2-.6-6.5-.7-2.4-.1-4.3-.6-4.3-.9 0-.4-1.3-.4-3 .1-1.6.5-3 .6-3 .2 0-.4-3.6-.7-8-.7s-8 .3-8 .7c0 .4-1.3.3-2.9-.2-1.6-.4-3.3-.4-3.7 0-.5.5-2.9 1-5.3 1.2-4.3.3-4.4.2-4.6-2.7-.1-1.7-.4-3.6-.8-4.2-.4-.7-.4-1.4.1-1.6.4-.3.6-5.4.5-11.4-.2-5.9-.3-11.3-.3-11.8 0-.6.2-2.7.4-4.8.2-2.1-.2-4-.7-4.4-1.3-.8-22.7-1.1-23.1-.3zm-1.1 76c-.3.5-.1 1 .6 1 .8 0 .8.4-.1 1.5s-.9 1.5-.1 1.5c.9 0 .9.5.1 2-.6 1.1-.7 2-.3 2 .8 0 .8 2.3.3 11.5-.1 1.6.1 4.2.3 5.7.2 1.6.1 2.8-.4 2.8s-.6.6-.4 1.2c.9 2.3 1.1 10.9.3 11.4-.4.3-.4 1.5.1 2.7.4 1.2.6 3.8.5 5.7-.5 7.8-.5 9.6-.1 12.3.2 1.5.1 3-.4 3.3-.5.2-.5 1.5-.1 2.7.9 2.8.8 46-.2 47.5-.4.7-.3 1.2.1 1.2.5 0 .8 1.9.7 4.2-.1 5.1.4 7 1.9 6.1.5-.3 5.3-.5 10.6-.4 13.9.2 18.4.1 18.9-.4.2-.2 1.5 0 2.8.5 1.4.6 2.6.6 2.9 0 .3-.6 1.5-.6 3 0 1.4.5 2.5.6 2.5.2 0-.8 22.4-.7 24.5.2.8.3 1.7.1 2-.4.3-.6 1.6-.5 3.1 0 1.4.6 2.3.6 2 .2-.5-.8 7.3-.6 8.2.3.9.9 1 13.5 0 12.9-.4-.3-1.1.2-1.4 1-.3.9-1 1.4-1.4 1.1-.5-.3-1.1-.1-1.5.5-.4.6-1.1.8-1.6.5-.5-.4-.9-.1-.9.5s-.4.9-.9.5c-.5-.3-1.2-.1-1.6.5-.4.6-1.1.8-1.6.5-.5-.4-.9-.2-.9.4 0 .5-.8.8-1.7.6-1-.1-2.2.1-2.8.5-1.9 1.4-10.9 2.4-23 2.4-15.3-.1-21.7-1.2-31.2-5.5-2.4-1-4.7-1.9-5.3-1.9-.5 0-1-.5-1-1.2 0-.6-.3-.9-.6-.5-.6.6-5.7-2.8-9.8-6.5-1.1-1-2.4-1.8-2.8-1.8-.5 0-.6-.5-.3-1 .3-.6-.1-1-1-1s-1.4-.4-1-.9c.3-.5-.4-1.2-1.5-1.6-1.1-.3-2-1.2-2-1.9s-1.3-2.7-3-4.6c-1.6-1.8-2.7-3.6-2.5-4 .3-.4-.4-1.8-1.5-3-1.8-2.1-2.4-3.5-1.8-4.3.1-.1-.5-1.6-1.4-3.2-2.3-4.1-4.6-11.6-4.2-13.8.1-.9-.1-1.7-.5-1.7s-.8-1.7-1-3.8c-.5-7.4-.8-10-1.5-11.1-.4-.6-.3-1.1.3-1.1.7 0 .7-.8.2-2.2-.4-1.3-.5-3.5 0-5 .4-1.5.4-3-.1-3.3-.5-.3-.5-1.8-.1-3.3.5-1.5.7-3.7.5-5-.2-1.2-.1-2.2.4-2.2.4 0 .8-1.5.8-3.3.1-2.9 1-8.2 1.4-8.2.3 0 1.2-4 1.3-5.8.1-.9.5-1.7.9-1.7s.8-.8.8-1.7c0-.9.8-2.5 1.8-3.6 1.1-1.3 1.2-1.7.3-1.2-.9.5-.7-.2.5-2.1 2.5-3.5 3.8-6.5 3.5-7.9-.2-.5.1-.7.5-.3.4.5 1.5-.4 2.4-2 .9-1.5 4.6-5.7 8.1-9.5 6.1-6.4 7.8-7.9 6.4-5.7z"/></svg>