<?xml version="1.0" encoding="utf-8"?>
<!-- Generator: Adobe Illustrator 16.0.0, SVG Export Plug-In . SVG Version: 6.00 Build 0)  -->
<!DOCTYPE svg PUBLIC "-//W3C//DTD SVG 1.1//EN" "http://www.w3.org/Graphics/SVG/1.1/DTD/svg11.dtd">
<svg version="1.1" id="D9_dozer" xmlns="http://www.w3.org/2000/svg" xmlns:xlink="http://www.w3.org/1999/xlink" x="0px" y="0px"
	 width="1020px" height="645px" viewBox="0 0 1020 645" enable-background="new 0 0 1020 645" xml:space="preserve">
<g>
	
		<rect x="451.156" y="31.309" fill="#FFFFFF" stroke="#000000" stroke-width="1.9705" stroke-linejoin="round" width="19.688" height="147.875"/>
	
		<rect x="450.938" y="31.309" fill="#A89187" stroke="#000000" stroke-width="1.9705" stroke-linejoin="round" width="12.031" height="147.875"/>
	<polygon fill="#FFA800" stroke="#000000" stroke-width="1.9705" stroke-linejoin="round" points="447.875,179.406 439.563,190.781 
		325.594,190.781 213.156,190.781 196.094,193.406 184.281,197.996 178.813,199.969 173.781,205.434 171.156,208.281 
		167.219,216.594 166.781,259.469 158.906,288.996 158.906,339.309 158.906,375.844 145.344,388.309 145.344,394.871 
		145.344,412.594 145.344,418.496 130.25,431.621 116.031,426.156 116.031,400.996 95.031,364.469 80.594,350.684 50.406,339.309 
		37.281,339.309 50.406,375.844 37.281,560.246 29.844,585.406 22.188,603.121 8.406,609.469 8.406,621.496 79.5,609.469 
		142.281,604.656 158.906,587.156 168.969,587.156 224.531,585.406 274.844,596.344 289.063,609.469 296.5,609.469 347.469,615.594 
		382.906,621.496 642.563,621.496 888.656,621.496 902.438,603.121 916.656,596.344 931.969,585.406 944.875,572.934 
		944.875,553.906 188.656,553.906 174.438,553.906 166.781,541.871 174.438,534.871 158.906,529.844 139.875,530.496 
		132.875,521.531 124.781,506.434 138.781,493.094 165.031,482.371 182.531,489.809 166.781,523.719 158.906,529.844 
		188.656,529.844 195.219,548.871 188.656,553.906 944.875,553.906 952.531,541.871 989.063,529.844 1011.594,529.844 
		1003.281,504.684 926.938,504.031 895.219,326.621 895.219,271.496 895.219,266.246 852.781,234.969 822.813,204.344 
		808.594,204.344 801.375,204.344 787.156,185.309 780.594,174.371 780.594,136.094 736.406,87.531 569.938,87.531 555.938,98.684 
		555.938,105.684 535.156,185.309 527.938,179.406 527.938,167.371 527.938,160.809 506.281,160.809 499.5,160.809 491.406,174.371 
		483.75,179.406 469.531,179.406 	"/>
	<polygon fill="#FFA800" stroke="#000000" stroke-width="1.9705" stroke-linejoin="round" points="116.469,428.781 104.875,572.281 
		83.656,597.656 9.063,621.059 88.031,608.809 140.531,605.094 157.813,588.684 230,588.684 201.125,527.219 138.344,532.031 
		126.313,508.406 140.531,492.219 165.031,482.809 193.906,494.406 222.781,433.156 179.25,433.156 167.219,428.781 
		160.219,421.559 160.219,374.309 153,388.531 153,416.746 128.938,440.371 	"/>
	<polygon fill="#A80000" stroke="#000000" stroke-width="1.9705" stroke-linejoin="round" points="240.281,629.594 872.469,629.594 
		886.031,626.531 898.719,623.246 908.344,618.871 914.906,614.281 921.688,607.719 927.156,599.184 931.75,592.184 
		938.531,579.496 946.625,552.809 949.469,526.121 945.969,496.594 936.125,472.094 924.75,453.934 909.438,441.469 
		885.375,431.406 864.375,423.969 768.125,396.621 393.844,396.621 346.156,402.746 256.906,417.406 233.719,425.934 
		214.688,436.434 205.5,442.996 197.844,450.656 190.188,460.934 183.625,471.434 177.5,487.621 172.031,504.684 168.969,533.121 
		173.125,563.746 183.188,590.434 190.625,602.031 201.781,614.934 213.156,621.934 221.906,625.871 	"/>
	<polygon fill="#A89187" points="474.125,25.844 496.438,10.094 500.813,15.996 478.281,31.309 	"/>
	<polygon fill="none" stroke="#000000" stroke-width="1.9705" stroke-linejoin="round" points="474.125,25.844 496.438,10.094 
		500.813,15.996 478.281,31.309 	"/>
	<polyline fill="none" stroke="#A80000" stroke-width="1.9705" stroke-linejoin="round" points="116.469,402.531 104.875,567.469 
		90.219,605.094 10.594,621.496 	"/>
	<polyline fill="none" stroke="#000000" stroke-width="1.9705" stroke-linejoin="round" points="419.438,400.344 767.469,400.344 
		892.156,438.184 914.906,450.656 	"/>
	<polyline fill="none" stroke="#A80000" stroke-width="1.9705" stroke-linejoin="round" points="83.219,354.621 104.875,400.344 
		92.406,565.281 	"/>
	
		<rect x="478.938" y="220.969" fill="#A80000" stroke="#000000" stroke-width="1.9705" stroke-linejoin="round" width="38.063" height="14"/>
	
		<rect x="683.469" y="361.621" fill="#A80000" stroke="#000000" stroke-width="1.9705" stroke-linejoin="round" width="55.125" height="15.313"/>
	<polygon fill="#A80000" stroke="#000000" stroke-width="1.9705" stroke-linejoin="round" points="782.344,171.746 782.344,399.469 
		790,402.094 792.188,393.996 809.031,400.559 809.031,202.809 	"/>
	
		<rect x="811.219" y="327.281" fill="#A80000" stroke="#000000" stroke-width="1.9705" stroke-linejoin="round" width="84.656" height="14.215"/>
	
		<rect x="188.656" y="355.719" fill="#FFFFFF" stroke="#A80000" stroke-width="1.9705" stroke-linejoin="round" width="255.719" height="2.625"/>
	
		<rect x="188.656" y="226.434" fill="#A80000" stroke="#A80000" stroke-width="1.9705" stroke-linejoin="round" width="2.625" height="130.375"/>
	
		<rect x="193.906" y="219.871" fill="#FFFF54" stroke="#FFFF54" stroke-width="1.9705" stroke-linejoin="round" width="251.563" height="3.285"/>
	
		<rect x="442.406" y="223.156" fill="#FFFF54" stroke="#FFFF54" stroke-width="1.9705" stroke-linejoin="round" width="3.063" height="127.09"/>
	<rect x="691.781" y="111.156" stroke="#A80000" stroke-width="1.9705" stroke-linejoin="round" width="4.813" height="45.715"/>
	<polyline fill="none" stroke="#000000" stroke-width="1.9705" stroke-linejoin="round" points="689.594,111.156 689.594,156.871 
		696.594,156.871 	"/>
	<rect x="703.156" y="111.156" stroke="#A80000" stroke-width="1.9705" stroke-linejoin="round" width="4.813" height="45.715"/>
	<polyline fill="none" stroke="#000000" stroke-width="1.9705" stroke-linejoin="round" points="700.969,111.156 700.969,156.871 
		707.969,156.871 	"/>
	<rect x="714.531" y="111.156" stroke="#A80000" stroke-width="1.9705" stroke-linejoin="round" width="4.594" height="45.715"/>
	<polyline fill="none" stroke="#000000" stroke-width="1.9705" stroke-linejoin="round" points="712.344,111.156 712.344,156.871 
		719.125,156.871 	"/>
	<rect x="725.688" y="111.156" stroke="#A80000" stroke-width="1.9705" stroke-linejoin="round" width="4.813" height="45.715"/>
	<polyline fill="none" stroke="#000000" stroke-width="1.9705" stroke-linejoin="round" points="723.938,111.156 723.938,156.871 
		730.5,156.871 	"/>
	
		<line fill="none" stroke="#000000" stroke-width="1.9705" stroke-linejoin="round" x1="546.531" y1="179.184" x2="546.531" y2="389.406"/>
	<polyline fill="none" stroke="#000000" stroke-width="1.9705" stroke-linejoin="round" points="548.281,393.344 548.281,179.184 
		567.75,103.934 669.25,103.934 669.25,390.719 	"/>
	
		<line fill="none" stroke="#000000" stroke-width="1.9705" stroke-linejoin="round" x1="666.625" y1="105.469" x2="666.625" y2="386.781"/>
	<polygon fill="#00A0C6" stroke="#000000" stroke-width="1.9705" stroke-linejoin="round" points="576.063,112.031 572.344,129.746 
		560.313,183.781 560.313,207.621 654.594,207.621 654.594,112.031 	"/>
	<polygon fill="#00A0C6" stroke="#000000" stroke-width="1.9705" stroke-linejoin="round" points="563.375,235.621 563.375,346.969 
		626.375,346.969 626.156,231.246 563.375,231.246 	"/>
	<polygon fill="#FFFFFF" stroke="#FFFFFF" stroke-width="1.9705" stroke-linejoin="round" points="584.375,122.531 574.531,178.746 
		581.969,188.156 594,178.746 606.031,185.746 625.281,192.531 627.469,183.559 639.5,190.781 649.563,192.531 649.563,126.906 
		639.5,119.906 588.75,119.906 	"/>
	<polygon fill="#FFFFFF" stroke="#FFFFFF" stroke-width="1.9705" stroke-linejoin="round" points="622,257.934 610.406,276.969 
		602.313,269.531 587.438,281.559 585.906,292.934 567.969,314.594 567.969,235.621 586.344,235.621 594.438,244.156 
		609.969,244.371 616.313,241.969 620.688,241.969 	"/>
	
		<line fill="none" stroke="#000000" stroke-width="1.9705" stroke-linejoin="round" x1="572.781" y1="105.469" x2="666.625" y2="105.469"/>
	
		<rect x="627.906" y="215.281" fill="#A89187" stroke="#000000" stroke-width="1.9705" stroke-linejoin="round" width="26.688" height="9.402"/>
	
		<rect x="630.094" y="219.219" fill="#FFFFFF" stroke="#000000" stroke-width="1.9705" stroke-linejoin="round" width="23.406" height="3.715"/>
	<polygon fill="#A80000" stroke="#000000" stroke-width="1.9705" stroke-linejoin="round" points="154.75,463.121 143.375,452.406 
		128.063,452.406 117.125,463.121 117.125,478.656 128.063,489.371 143.375,489.371 154.75,478.656 	"/>
	<polygon fill="#FFA800" stroke="#000000" stroke-width="1.9705" stroke-linejoin="round" points="154.531,459.406 144.906,450.656 
		131.781,450.656 122.375,459.406 122.375,472.531 131.781,482.156 144.906,482.156 154.531,472.531 	"/>
	<polygon fill="#A80000" stroke="#000000" stroke-width="1.9705" stroke-linejoin="round" points="149.281,557.621 138.344,547.121 
		123.688,547.121 112.75,557.621 112.75,572.934 123.688,582.781 138.344,582.781 149.281,572.934 	"/>
	<polygon fill="#FFA800" stroke="#000000" stroke-width="1.9705" stroke-linejoin="round" points="148.625,553.906 139.438,546.031 
		127.406,546.031 118.656,553.906 118.656,566.371 127.406,574.684 139.438,574.684 148.625,566.371 	"/>
	<polygon fill="#FFA800" stroke="#000000" stroke-width="1.9705" stroke-linejoin="round" points="190.625,502.059 227.375,600.719 
		892.156,600.719 921.469,489.371 866.563,475.371 770.969,461.156 364.75,461.156 195,491.559 	"/>
	<polygon fill="#FFA800" stroke="#000000" stroke-width="1.9705" stroke-linejoin="round" points="369.781,527.219 369.125,519.559 
		368.25,511.684 366.5,504.031 363.875,495.934 360.594,488.719 357.094,481.281 352.719,474.719 347.906,468.594 342.438,462.684 
		336.313,457.219 329.75,452.184 322.75,448.031 315.531,444.094 307.656,441.246 299.781,439.059 292.125,437.094 283.594,435.996 
		275.281,435.781 267.188,435.996 259.094,437.094 250.781,439.059 243.563,441.246 235.906,444.094 228.469,448.031 
		221.688,452.184 215.125,457.219 209.219,462.684 203.313,468.594 198.281,474.719 193.906,481.281 190.188,488.719 
		186.906,495.934 184.719,504.031 182.969,511.684 181.875,519.559 181.438,527.219 181.875,535.309 182.969,543.406 
		184.719,551.496 186.906,558.719 190.188,565.934 193.906,573.371 198.281,580.156 203.313,586.496 209.219,592.184 
		215.125,597.656 221.688,602.906 228.469,606.844 235.906,610.559 243.563,613.844 250.781,616.469 259.094,617.781 
		267.188,618.871 275.281,619.309 283.594,618.871 292.125,617.781 299.781,616.469 307.656,613.844 315.531,610.559 
		322.75,606.844 329.75,602.906 336.313,597.656 342.438,592.184 347.906,586.496 352.719,580.156 357.094,573.371 360.594,565.934 
		363.875,558.719 366.5,551.496 368.25,543.406 369.125,535.309 	"/>
	<polygon fill="#A80000" stroke="#000000" stroke-width="1.9705" stroke-linejoin="round" points="360.375,527.219 360.375,519.996 
		359.281,512.781 357.75,505.781 355.563,498.781 352.281,491.996 348.563,485.656 345.063,479.531 340.25,473.621 335.438,468.594 
		329.75,463.344 323.844,458.969 317.719,455.031 310.938,451.746 304.156,448.906 297.156,446.719 289.5,445.184 282.281,444.094 
		274.625,444.094 267.188,444.094 259.969,445.184 252.531,446.719 245.313,448.906 238.313,451.746 232.188,455.031 
		225.625,458.969 219.719,463.344 214.25,468.594 209.219,473.621 204.406,479.531 200.469,485.656 197.188,491.996 
		194.125,498.781 191.938,505.781 190.188,512.781 189.531,519.996 188.656,527.219 189.531,534.656 190.188,541.871 
		191.938,548.871 194.125,555.871 197.188,562.656 200.469,569.219 204.406,575.121 209.219,581.031 214.25,586.496 
		219.719,591.094 225.625,595.906 232.188,599.621 238.313,602.906 245.313,605.746 252.531,607.934 259.969,609.906 
		267.188,610.559 274.625,610.996 282.281,610.559 289.5,609.906 297.156,607.934 304.156,605.746 310.938,602.906 317.719,599.621 
		323.844,595.906 329.75,591.094 335.438,586.496 340.25,581.031 345.063,575.121 348.563,569.219 352.281,562.656 355.563,555.871 
		357.75,548.871 359.281,541.871 360.375,534.656 	"/>
	<polygon fill="#FFA800" stroke="#000000" stroke-width="1.9705" stroke-linejoin="round" points="332.156,527.219 332.156,522.621 
		331.5,517.371 330.406,512.781 328.875,507.969 327.125,504.031 324.5,499.656 322.094,495.281 318.813,491.121 315.531,487.621 
		311.813,484.559 307.656,481.281 303.281,478.656 298.906,476.469 294.531,474.719 289.5,473.184 284.688,472.094 279.656,471.434 
		274.625,470.996 269.813,471.434 264.781,472.094 259.531,473.184 255.156,474.719 250.781,476.469 245.969,478.656 
		241.594,481.281 237.656,484.559 233.938,487.621 230.656,491.121 227.813,495.281 224.969,499.656 222.781,504.031 
		220.813,507.969 219.5,512.781 217.969,517.371 217.531,522.621 217.313,527.219 217.531,532.469 217.969,537.059 219.5,541.871 
		220.813,546.684 222.781,551.059 224.969,555.434 227.813,559.809 230.656,563.531 233.938,567.031 237.656,570.309 
		241.594,573.371 245.969,575.781 250.781,578.406 255.156,580.156 259.531,581.684 264.781,582.344 269.813,583.219 
		274.625,583.434 279.656,583.219 284.688,582.344 289.5,581.684 294.531,580.156 298.906,578.406 303.281,575.781 307.656,573.371 
		311.813,570.309 315.531,567.031 318.813,563.531 322.094,559.809 324.5,555.434 327.125,551.059 328.875,546.684 330.406,541.871 
		331.5,537.059 332.156,532.469 	"/>
	<polygon fill="#FFA800" stroke="#000000" stroke-width="1.9705" stroke-linejoin="round" points="331.5,523.719 331.063,519.559 
		330.406,514.969 329.75,510.594 328.219,506.219 326.469,502.059 324.281,498.121 322.094,494.184 318.813,490.469 315.75,487.621 
		312.469,484.344 308.531,481.281 304.813,479.094 300.875,476.906 296.5,475.156 292.125,474.059 287.75,472.531 283.375,472.094 
		278.563,472.094 273.531,472.094 269.156,472.531 264.781,474.059 260.406,475.156 255.813,476.906 251.875,479.094 
		247.938,481.281 244.219,484.344 240.938,487.621 237.656,490.469 234.813,494.184 232.625,498.121 230.438,502.059 
		228.469,506.219 227.156,510.594 226.063,514.969 225.625,519.559 225.188,523.719 225.625,528.309 226.063,532.684 
		227.156,537.059 228.469,541.434 230.438,545.594 232.625,549.969 234.813,553.684 237.656,557.184 240.938,560.246 
		244.219,563.531 247.938,565.934 251.875,568.559 255.813,570.309 260.406,572.281 264.781,573.594 269.156,574.684 
		273.531,575.121 278.563,575.559 283.375,575.121 287.75,574.684 292.125,573.594 296.5,572.281 300.875,570.309 304.813,568.559 
		308.531,565.934 312.469,563.531 315.75,560.246 318.813,557.184 322.094,553.684 324.281,549.969 326.469,545.594 
		328.219,541.434 329.75,537.059 330.406,532.684 331.063,528.309 	"/>
	<polygon fill="#FFA800" stroke="#000000" stroke-width="1.9705" stroke-linejoin="round" points="322.313,524.809 322.094,521.094 
		321.656,516.719 320.563,512.996 319.469,509.496 317.938,505.781 316.188,502.496 314,498.781 311.375,495.934 308.531,493.094 
		305.906,490.469 302.625,487.844 298.906,486.094 295.625,483.906 292.125,482.371 287.969,481.281 284.031,480.621 
		280.094,479.746 275.938,479.746 272,479.746 268.063,480.621 264.344,481.281 260.406,482.371 256.906,483.906 253.406,486.094 
		249.688,487.844 246.844,490.469 243.563,493.094 240.938,495.934 238.313,498.781 236.125,502.496 234.375,505.781 
		232.844,509.496 231.75,512.996 230.656,516.719 230.438,521.094 230,524.809 230.438,528.309 230.656,532.469 231.75,536.406 
		232.844,540.121 234.375,543.844 236.125,547.121 238.313,550.406 240.938,553.684 243.563,556.531 246.844,559.371 
		249.688,561.559 253.406,563.531 256.906,565.281 260.406,566.809 264.344,568.121 268.063,568.559 272,569.219 275.938,569.656 
		280.094,569.219 284.031,568.559 287.969,568.121 292.125,566.809 295.625,565.281 298.906,563.531 302.625,561.559 
		305.906,559.371 308.531,556.531 311.375,553.684 314,550.406 316.188,547.121 317.938,543.844 319.469,540.121 320.563,536.406 
		321.656,532.469 322.094,528.309 	"/>
	<polygon fill="#FFA800" stroke="#000000" stroke-width="1.9705" stroke-linejoin="round" points="941.594,529.844 941.156,521.746 
		939.625,513.871 938.313,506.219 935.688,498.559 932.406,491.121 928.688,483.906 924.313,477.344 919.281,470.781 
		913.813,464.871 907.906,459.406 900.906,454.594 894.344,450.219 887.125,446.719 879.469,443.434 871.375,441.246 
		863.281,439.281 855.406,438.184 846.875,438.184 839,438.184 830.906,439.281 822.813,441.246 815.156,443.434 807.063,446.719 
		800.281,450.219 792.844,454.594 786.719,459.406 780.594,464.871 774.688,470.781 770.313,477.344 765.5,483.906 762,491.121 
		758.5,498.559 756.094,506.219 754.125,513.871 753.469,521.746 753.031,529.844 753.469,537.934 754.125,545.594 756.094,553.684 
		758.5,560.906 762,568.559 765.5,575.559 770.313,582.344 774.688,588.684 780.594,594.371 786.719,600.281 792.844,604.656 
		800.281,609.031 807.063,613.184 815.156,616.031 822.813,618.656 830.906,619.969 839,621.059 846.875,621.496 855.406,621.059 
		863.281,619.969 871.375,618.656 879.469,616.031 887.125,613.184 894.344,609.031 900.906,604.656 907.906,600.281 
		913.813,594.371 919.281,588.684 924.313,582.344 928.688,575.559 932.406,568.559 935.688,560.906 938.313,553.684 
		939.625,545.594 941.156,537.934 	"/>
	<polygon fill="#A80000" stroke="#000000" stroke-width="1.9705" stroke-linejoin="round" points="931.969,529.844 931.75,522.621 
		930.875,515.184 929.563,507.969 926.938,500.969 923.875,494.406 920.594,487.844 916.656,482.156 911.844,476.246 
		907.25,470.344 901.344,465.531 895.438,461.156 889.313,457.219 882.75,454.371 875.531,451.094 868.531,449.121 861.094,447.371 
		853.875,446.719 846.656,445.844 839,446.719 831.563,447.371 824.344,449.121 817.125,451.094 810.125,454.371 803.563,457.219 
		797,461.156 791.094,465.531 785.625,470.344 780.594,476.246 776.219,482.156 772.063,487.844 768.563,494.406 765.938,500.969 
		763.75,507.969 762,515.184 761.125,522.621 760.688,529.844 761.125,537.059 762,544.059 763.75,551.496 765.938,558.281 
		768.563,564.844 772.063,571.406 776.219,577.746 780.594,583.219 785.625,588.684 791.094,593.719 797,597.656 803.563,602.031 
		810.125,605.309 817.125,607.934 824.344,610.559 831.563,612.094 839,613.184 846.656,613.184 853.875,613.184 861.094,612.094 
		868.531,610.559 875.531,607.934 882.75,605.309 889.313,602.031 895.438,597.656 901.344,593.719 907.25,588.684 911.844,583.219 
		916.656,577.746 920.594,571.406 923.875,564.844 926.938,558.281 929.563,551.496 930.875,544.059 931.75,537.059 	"/>
	<polygon fill="#FFA800" stroke="#000000" stroke-width="1.9705" stroke-linejoin="round" points="903.969,529.844 903.969,525.031 
		903.094,519.996 902,515.184 900.25,510.594 898.5,506.219 896.313,501.844 893.688,497.469 890.406,493.746 887.125,490.031 
		883.406,486.746 879.469,483.906 875.094,481.059 870.719,479.094 865.906,476.906 861.531,475.371 856.5,474.281 851.25,473.621 
		846.656,473.621 841.406,473.621 836.375,474.281 831.563,475.371 826.969,476.906 822.156,479.094 817.344,481.059 
		813.406,483.906 809.25,486.746 805.75,490.031 802.031,493.746 799.188,497.469 796.563,501.844 794.375,506.219 792.188,510.594 
		790.656,515.184 789.344,519.996 788.906,525.031 788.906,529.844 788.906,534.656 789.344,539.246 790.656,544.059 
		792.188,548.871 794.375,553.246 796.563,557.621 799.188,561.996 802.031,565.934 805.75,569.219 809.25,572.934 813.406,575.559 
		817.344,578.406 822.156,580.594 826.969,582.344 831.563,583.871 836.375,584.969 841.406,585.621 846.656,586.059 
		851.25,585.621 856.5,584.969 861.531,583.871 865.906,582.344 870.719,580.594 875.094,578.406 879.469,575.559 883.406,572.934 
		887.125,569.219 890.406,565.934 893.688,561.996 896.313,557.621 898.5,553.246 900.25,548.871 902,544.059 903.094,539.246 
		903.969,534.656 	"/>
	<polygon fill="#FFA800" stroke="#000000" stroke-width="1.9705" stroke-linejoin="round" points="902.875,526.121 902.875,521.531 
		902,517.156 900.906,512.781 899.813,508.406 898.063,504.246 895.875,500.309 893.25,496.594 890.406,493.094 887.563,489.371 
		884.281,486.531 880.563,483.906 876.625,481.281 872.469,479.094 868.094,477.559 863.719,476.246 858.906,475.156 
		854.531,474.719 849.938,474.281 845.563,474.719 840.75,475.156 836.375,476.246 831.563,477.559 827.625,479.094 823.25,481.281 
		819.531,483.906 815.594,486.531 812.531,489.371 809.25,493.094 806.406,496.594 803.781,500.309 801.594,504.246 
		800.281,508.406 798.75,512.781 797.656,517.156 797,521.531 797,526.121 797,530.496 797.656,534.871 798.75,539.246 
		800.281,543.844 801.594,547.781 803.781,551.719 806.406,555.871 809.25,559.371 812.531,562.434 815.594,565.934 
		819.531,568.559 823.25,571.184 827.625,572.934 831.563,574.684 836.375,575.781 840.75,576.871 845.563,577.746 849.938,577.746 
		854.531,577.746 858.906,576.871 863.719,575.781 868.094,574.684 872.469,572.934 876.625,571.184 880.563,568.559 
		884.281,565.934 887.563,562.434 890.406,559.371 893.25,555.871 895.875,551.719 898.063,547.781 899.813,543.844 
		900.906,539.246 902,534.871 902.875,530.496 	"/>
	<polygon fill="#FFA800" stroke="#000000" stroke-width="1.9705" stroke-linejoin="round" points="894.125,526.996 893.688,522.844 
		893.031,519.344 892.156,515.621 890.844,511.906 889.75,507.969 887.563,504.684 885.594,501.406 883.188,498.121 
		880.563,495.281 877.281,492.656 874,490.469 870.719,488.281 867,486.531 863.281,484.996 859.781,483.906 855.625,482.809 
		851.688,482.371 847.969,482.156 843.594,482.371 839.656,482.809 835.719,483.906 832,484.996 828.281,486.531 825,488.281 
		821.5,490.469 818.219,492.656 815.156,495.281 812.531,498.121 809.688,501.406 807.938,504.684 805.969,507.969 804.656,511.906 
		803.125,515.621 802.469,519.344 801.594,522.844 801.594,526.996 801.594,530.934 802.469,534.871 803.125,538.594 
		804.656,542.531 805.969,546.031 807.938,549.531 809.688,552.809 812.531,555.871 815.156,558.719 818.219,561.344 821.5,563.746 
		825,565.934 828.281,567.906 832,569.219 835.719,570.309 839.656,571.184 843.594,571.844 847.969,571.844 851.688,571.844 
		855.625,571.184 859.781,570.309 863.281,569.219 867,567.906 870.719,565.934 874,563.746 877.281,561.344 880.563,558.719 
		883.188,555.871 885.594,552.809 887.563,549.531 889.75,546.031 890.844,542.531 892.156,538.594 893.031,534.871 
		893.688,530.934 	"/>
	<polygon fill="#FFA800" stroke="#000000" stroke-width="1.9705" stroke-linejoin="round" points="187.563,559.371 191.719,578.406 
		390.344,594.156 734.875,594.156 926.063,579.496 936.781,561.344 930.875,554.344 193.906,554.344 	"/>
	
		<rect x="239.188" y="516.281" fill="#A80000" stroke="#000000" stroke-width="1.9705" stroke-linejoin="round" width="79.625" height="37.625"/>
	
		<rect x="268.281" y="530.496" fill="#FFA800" stroke="#000000" stroke-width="1.9705" stroke-linejoin="round" width="14.219" height="23.41"/>
	
		<rect x="239.188" y="525.469" fill="#FFA800" stroke="#000000" stroke-width="1.9705" stroke-linejoin="round" width="7.875" height="28.438"/>
	
		<rect x="811.875" y="518.469" fill="#A80000" stroke="#000000" stroke-width="1.9705" stroke-linejoin="round" width="77.438" height="35.215"/>
	
		<rect x="841.188" y="532.684" fill="#FFA800" stroke="#000000" stroke-width="1.9705" stroke-linejoin="round" width="14.219" height="21"/>
	
		<rect x="809.688" y="525.906" fill="#FFA800" stroke="#000000" stroke-width="1.9705" stroke-linejoin="round" width="9.844" height="27.777"/>
	<polygon fill="#A80000" stroke="#000000" stroke-width="1.9705" stroke-linejoin="round" points="331.063,589.781 326.031,594.371 
		316.625,600.281 226.719,596.344 217.531,589.781 208.125,579.934 	"/>
	<polygon fill="#A80000" stroke="#000000" stroke-width="1.9705" stroke-linejoin="round" points="786.281,588.684 914.031,580.594 
		907.906,588.246 897.625,595.469 800.5,600.281 792.625,594.809 	"/>
	<polygon fill="#FFA800" stroke="#000000" stroke-width="1.9705" stroke-linejoin="round" points="771.844,415.871 771.844,414.781 
		771.406,413.469 771.406,412.594 770.969,411.496 770.313,410.184 770.313,409.309 769.219,408.656 768.563,407.559 
		768.125,406.906 767.469,406.031 766.375,405.371 765.281,404.719 764.188,404.281 763.094,403.844 762.219,403.621 
		761.125,403.184 760.031,403.184 758.5,403.184 757.406,403.184 756.313,403.184 755.219,403.621 754.125,403.844 753.031,404.281 
		752.375,404.719 751.281,405.371 750.188,406.031 749.531,406.906 748.656,407.559 748,408.656 747.344,409.309 746.906,410.184 
		746.469,411.496 746.25,412.594 745.813,413.469 745.813,414.781 745.375,415.871 745.813,416.746 745.813,418.281 746.25,418.934 
		746.469,420.031 746.906,421.121 747.344,422.219 748,422.871 748.656,423.969 749.531,424.844 750.188,425.496 751.281,426.156 
		752.375,427.031 753.031,427.246 754.125,427.684 755.219,428.121 756.313,428.344 757.406,428.781 758.5,428.781 760.031,428.781 
		761.125,428.344 762.219,428.121 763.094,427.684 764.188,427.246 765.281,427.031 766.375,426.156 767.469,425.496 
		768.125,424.844 768.563,423.969 769.219,422.871 770.313,422.219 770.313,421.121 770.969,420.031 771.406,418.934 
		771.406,418.281 771.844,416.746 	"/>
	
		<rect x="531.875" y="521.746" fill="#A80000" stroke="#000000" stroke-width="1.9705" stroke-linejoin="round" width="106.531" height="28.66"/>
	<polygon fill="#FFA800" stroke="#000000" stroke-width="1.9705" stroke-linejoin="round" points="552.438,571.406 571.031,539.684 
		612.156,539.684 626.813,571.406 	"/>
	<polygon fill="#A80000" stroke="#000000" stroke-width="1.9705" stroke-linejoin="round" points="627.25,571.844 617.625,578.844 
		544.781,578.844 552.656,571.844 	"/>
	<polygon fill="#A89187" stroke="#000000" stroke-width="1.9705" stroke-linejoin="round" points="597.719,555.871 597.719,554.781 
		597.719,553.906 597.281,553.684 597.281,552.809 596.844,552.156 596.625,551.496 596.188,550.621 595.531,549.969 
		594.656,549.969 594.656,549.309 594,548.871 593.125,548.219 592.469,547.781 591.813,547.344 590.938,547.344 590.281,547.344 
		589.625,547.344 588.75,547.121 588.094,547.344 587.438,547.344 586.563,547.344 585.906,547.344 585.25,547.781 584.375,548.219 
		583.719,548.871 583.281,549.309 582.625,549.969 582.188,549.969 581.969,550.621 581.094,551.496 581.094,552.156 
		580.875,552.809 580.438,553.684 580.438,553.906 580,554.781 580,555.871 580,556.094 580.438,557.184 580.438,558.059 
		580.875,558.281 581.094,559.371 581.094,559.809 581.969,560.246 582.188,560.906 582.625,561.559 583.281,561.996 
		583.719,562.434 584.375,562.656 585.25,563.531 585.906,563.531 586.563,563.746 587.438,563.746 588.094,564.184 588.75,564.184 
		589.625,564.184 590.281,563.746 590.938,563.746 591.813,563.531 592.469,563.531 593.125,562.656 594,562.434 594.656,561.996 
		594.656,561.559 595.531,560.906 596.188,560.246 596.625,559.809 596.844,559.371 597.281,558.281 597.281,558.059 
		597.719,557.184 597.719,556.094 	"/>
	<polygon fill="#A89187" stroke="#000000" stroke-width="1.9705" stroke-linejoin="round" points="585.906,595.246 555.938,595.246 
		555.938,596.559 556.375,598.531 556.813,599.844 557.031,601.371 557.906,603.121 558.125,604.656 558.563,605.746 
		559.656,607.281 560.313,608.371 561.406,609.906 562.281,610.559 563.594,611.656 564.688,612.309 565.781,613.184 
		566.875,613.406 568.406,613.844 569.938,614.281 571.031,614.281 572.344,614.281 573.438,613.844 574.969,613.406 
		576.063,613.184 577.156,612.309 578.25,611.656 579.781,610.559 580.438,609.906 581.531,608.371 582.188,607.281 
		583.063,605.746 583.719,604.656 584.375,603.121 584.813,601.371 585.25,599.844 585.469,598.531 585.906,596.559 	"/>
	<polygon fill="#A89187" stroke="#000000" stroke-width="1.9705" stroke-linejoin="round" points="561.844,599.184 562.281,600.281 
		562.281,601.371 562.938,602.031 563.375,603.121 564.031,603.996 564.469,604.656 565.563,605.309 566.219,606.184 
		566.875,606.621 567.75,607.281 568.406,607.281 569.5,607.719 570.156,607.719 571.031,607.934 571.688,607.719 572.781,607.719 
		573.438,607.281 574.313,607.281 574.969,606.621 575.625,606.184 576.719,605.309 577.156,604.656 577.813,603.996 
		578.688,603.121 578.906,602.031 579.781,601.371 579.781,600.281 580.438,599.184 580.438,598.094 	"/>
	<polygon fill="#A89187" stroke="#000000" stroke-width="1.9705" stroke-linejoin="round" points="562.5,597.656 562.938,598.746 
		563.375,599.844 563.594,600.719 564.469,601.809 564.688,602.469 565.563,603.121 566.219,603.559 566.656,604.219 
		567.313,604.656 567.969,605.094 568.844,605.309 569.938,605.746 570.594,605.746 571.25,605.746 572.125,605.746 
		572.781,605.746 573.438,605.309 574.531,605.094 575.406,604.656 575.625,604.219 576.719,603.559 577.156,603.121 
		577.813,602.469 578.25,601.809 578.688,600.719 579.344,599.844 579.781,598.746 579.781,597.656 	"/>
	<polygon fill="#A89187" stroke="#000000" stroke-width="1.9705" stroke-linejoin="round" points="563.594,597.656 564.031,598.746 
		564.031,599.184 564.469,600.281 564.688,600.719 565.563,601.371 565.781,602.031 566.656,602.906 566.875,603.121 
		567.75,603.121 567.969,603.559 568.844,604.219 569.938,604.656 570.156,604.656 571.031,604.656 571.688,604.656 
		572.344,604.656 572.781,604.219 573.438,603.559 574.313,603.121 574.969,603.121 575.625,602.906 576.063,602.031 576.5,601.371 
		577.156,600.719 577.594,600.281 577.813,599.184 578.25,598.746 578.25,597.656 	"/>
	<polygon fill="#A89187" stroke="#000000" stroke-width="1.9705" stroke-linejoin="round" points="585.906,595.246 585.25,600.281 
		557.031,600.281 556.375,595.246 	"/>
	<polygon fill="#A89187" stroke="#000000" stroke-width="1.9705" stroke-linejoin="round" points="428.188,595.246 398.656,595.246 
		398.656,596.559 398.656,598.531 399.313,599.844 399.75,601.371 400.188,603.121 400.844,604.656 401.281,605.746 
		401.938,607.281 403.031,608.371 404.125,609.906 404.781,610.559 405.875,611.656 407.406,612.309 408.5,613.184 409.594,613.406 
		411.125,613.844 412.219,614.281 413.531,614.281 414.625,614.281 416.156,613.844 417.25,613.406 418.781,613.184 
		419.875,612.309 420.531,611.656 422.063,610.559 423.156,609.906 424.25,608.371 424.906,607.281 425.563,605.746 
		426.438,604.656 426.875,603.121 427.094,601.371 427.969,599.844 428.188,598.531 428.188,596.559 	"/>
	<polygon fill="#A89187" stroke="#000000" stroke-width="1.9705" stroke-linejoin="round" points="404.125,599.184 404.563,600.281 
		404.781,601.371 405.656,602.031 405.875,603.121 406.75,603.996 406.969,604.656 407.844,605.309 408.5,606.184 409.156,606.621 
		410.031,607.281 411.125,607.281 411.781,607.719 412.438,607.719 413.531,607.934 414.406,607.719 415.063,607.719 
		416.156,607.281 416.594,607.281 417.688,606.621 418.344,606.184 419,605.309 419.875,604.656 420.531,603.996 421.188,603.121 
		421.625,602.031 422.063,601.371 422.719,600.281 422.719,599.184 423.156,598.094 	"/>
	<polygon fill="#A89187" stroke="#000000" stroke-width="1.9705" stroke-linejoin="round" points="405.219,597.656 405.656,598.746 
		405.656,599.844 406.313,600.719 406.75,601.809 407.406,602.469 408.063,603.121 408.5,603.559 409.156,604.219 410.031,604.656 
		410.688,605.094 411.344,605.309 412.219,605.746 412.875,605.746 413.531,605.746 414.625,605.746 415.5,605.746 416.156,605.309 
		416.813,605.094 417.688,604.656 418.344,604.219 419,603.559 419.875,603.121 420.531,602.469 420.531,601.809 421.625,600.719 
		421.625,599.844 422.063,598.746 422.719,597.656 	"/>
	<polygon fill="#A89187" stroke="#000000" stroke-width="1.9705" stroke-linejoin="round" points="405.875,597.656 406.313,598.746 
		406.75,599.184 406.969,600.281 407.406,600.719 408.063,601.371 408.5,602.031 408.938,602.906 409.594,603.121 410.25,603.121 
		410.688,603.559 411.344,604.219 412.219,604.656 412.875,604.656 413.531,604.656 413.969,604.656 415.063,604.656 415.5,604.219 
		416.156,603.559 416.594,603.121 417.688,603.121 417.906,602.906 418.781,602.031 419,601.371 419.438,600.719 420.094,600.281 
		420.531,599.184 420.531,598.746 420.531,597.656 	"/>
	<polygon fill="#A89187" stroke="#000000" stroke-width="1.9705" stroke-linejoin="round" points="428.188,595.246 427.969,600.281 
		399.75,600.281 398.656,595.246 	"/>
	<polygon fill="#A89187" stroke="#000000" stroke-width="1.9705" stroke-linejoin="round" points="725.469,595.246 695.5,595.246 
		695.5,596.559 695.5,598.531 696.156,600.281 696.594,601.809 696.813,603.121 697.688,604.656 697.906,605.746 699,607.719 
		699.875,608.809 700.969,609.906 701.625,610.559 703.156,611.656 704.25,612.309 705.344,613.184 706.438,613.406 
		707.969,614.281 709.063,614.281 710.375,614.281 711.469,614.281 713,614.281 714.094,613.406 715.625,613.184 716.719,612.309 
		717.813,611.656 718.906,610.559 720,609.906 721.094,608.809 721.75,607.719 722.406,605.746 723.281,604.656 723.938,603.121 
		723.938,601.809 724.594,600.281 725.469,598.531 725.469,596.559 	"/>
	<polygon fill="#A89187" stroke="#000000" stroke-width="1.9705" stroke-linejoin="round" points="700.969,599.184 701.188,600.719 
		701.625,601.809 702.281,602.469 702.719,603.121 703.375,604.219 703.813,605.094 704.906,605.746 705.344,606.184 
		706.438,606.621 707.094,607.281 707.969,607.719 708.625,607.719 709.719,607.719 710.375,607.934 711.25,607.719 
		711.906,607.719 713,607.719 713.656,607.281 714.531,606.621 715.188,606.184 715.844,605.746 716.719,605.094 717.375,604.219 
		718.031,603.121 718.469,602.469 718.906,601.809 719.125,600.719 720,599.184 720,598.531 	"/>
	<polygon fill="#A89187" stroke="#000000" stroke-width="1.9705" stroke-linejoin="round" points="702.063,598.094 702.281,599.184 
		702.281,600.281 703.156,600.719 703.375,601.809 704.25,602.469 704.906,603.121 705.344,603.559 706,604.656 706.875,605.094 
		707.531,605.309 708.188,605.309 709.063,605.746 710.156,605.746 710.375,605.746 711.469,605.746 712.344,605.746 713,605.309 
		713.656,605.309 714.531,605.094 715.188,604.656 715.844,603.559 716.719,603.121 717.375,602.469 717.813,601.809 
		718.031,600.719 718.906,600.281 718.906,599.184 719.125,598.094 	"/>
	<polygon fill="#A89187" stroke="#000000" stroke-width="1.9705" stroke-linejoin="round" points="703.156,597.656 703.156,598.746 
		703.375,599.621 703.813,600.281 704.25,600.934 704.906,601.809 705.344,602.031 706,602.906 706.438,603.121 707.094,603.559 
		707.531,603.996 708.188,604.219 709.063,604.656 709.719,604.656 710.375,604.656 711.25,604.656 711.906,604.656 
		712.344,604.219 713,603.996 713.656,603.559 714.531,603.121 714.75,602.906 715.625,602.031 715.844,601.809 716.281,600.934 
		716.938,600.281 717.375,599.621 717.375,598.746 717.813,597.656 	"/>
	<polygon fill="#A89187" stroke="#000000" stroke-width="1.9705" stroke-linejoin="round" points="725.469,595.469 725.031,600.281 
		696.594,600.281 695.5,595.469 	"/>
	
		<rect x="400.188" y="430.531" fill="#FFA800" stroke="#000000" stroke-width="1.9705" stroke-linejoin="round" width="31.063" height="122.715"/>
	
		<line fill="none" stroke="#000000" stroke-width="1.9705" stroke-linejoin="round" x1="405.219" y1="432.496" x2="405.219" y2="552.809"/>
	
		<rect x="419.438" y="430.531" fill="#FFA800" stroke="#000000" stroke-width="1.9705" stroke-linejoin="round" width="3.719" height="122.277"/>
	
		<rect x="399.094" y="430.531" fill="#FFA800" stroke="#000000" stroke-width="1.9705" stroke-linejoin="round" width="1.75" height="122.277"/>
	
		<rect x="401.938" y="427.684" fill="#A89187" stroke="#000000" stroke-width="1.9705" stroke-linejoin="round" width="15.313" height="3.938"/>
	<polygon fill="#A89187" stroke="#000000" stroke-width="1.9705" stroke-linejoin="round" points="435.844,421.781 435.844,420.031 
		435.844,418.281 435.625,416.309 434.75,414.559 434.094,413.031 433,411.281 432.344,409.746 431.25,408.219 429.719,406.906 
		428.188,405.809 426.875,404.281 425.344,403.621 423.375,402.746 421.625,401.656 420.094,401.434 417.906,400.996 
		416.156,400.559 414.406,400.559 412.438,400.559 410.688,400.996 408.5,401.434 406.75,401.656 405.219,402.746 403.469,403.621 
		401.5,404.281 400.188,405.809 399.094,406.906 397.563,408.219 396.469,409.746 395.375,411.281 394.719,413.031 393.844,414.559 
		393.188,416.309 392.75,418.281 392.75,420.031 392.75,421.781 392.75,423.746 392.75,425.496 393.188,427.246 393.844,429.219 
		394.719,430.531 395.375,432.496 396.469,433.809 397.563,435.344 399.094,436.871 400.188,438.184 401.5,439.059 403.469,440.371 
		405.219,441.246 406.75,441.469 408.5,442.344 410.688,442.559 412.438,442.996 414.406,442.996 416.156,442.996 417.906,442.559 
		420.094,442.344 421.625,441.469 423.375,441.246 425.344,440.371 426.875,439.059 428.188,438.184 429.719,436.871 
		431.25,435.344 432.344,433.809 433,432.496 434.094,430.531 434.75,429.219 435.625,427.246 435.844,425.496 435.844,423.746 	"/>
	<polygon fill="#A89187" stroke="#000000" stroke-width="1.9705" stroke-linejoin="round" points="429.063,421.781 429.063,420.469 
		429.063,419.371 428.625,418.281 428.188,416.969 427.531,415.871 427.094,414.781 426.438,413.684 425.563,412.594 
		424.469,411.496 423.813,410.844 422.719,410.184 421.625,409.309 420.531,408.656 419,408.219 417.906,407.996 416.813,407.559 
		415.5,407.559 414.406,407.559 412.875,407.559 411.781,407.559 410.688,407.996 409.156,408.219 408.063,408.656 406.969,409.309 
		405.875,410.184 404.781,410.844 404.125,411.496 402.594,412.594 402.375,413.684 401.5,414.781 401.281,415.871 400.406,416.969 
		400.188,418.281 399.75,419.371 399.75,420.469 399.75,421.781 399.75,422.871 399.75,424.406 400.188,425.496 400.406,426.594 
		401.281,427.684 401.5,429.219 402.375,430.309 402.594,430.969 404.125,431.621 404.781,432.719 405.875,433.809 406.969,434.246 
		408.063,434.684 409.156,435.344 410.688,435.781 411.781,435.781 412.875,435.996 414.406,435.996 415.5,435.996 416.813,435.781 
		417.906,435.781 419,435.344 420.531,434.684 421.625,434.246 422.719,433.809 423.813,432.719 424.469,431.621 425.563,430.969 
		426.438,430.309 427.094,429.219 427.531,427.684 428.188,426.594 428.625,425.496 429.063,424.406 429.063,422.871 	"/>
	<polygon fill="#A89187" stroke="#000000" stroke-width="1.9705" stroke-linejoin="round" points="428.188,420.469 427.969,419.594 
		427.969,418.281 427.531,416.969 427.094,416.309 426.875,415.219 426.438,413.684 425.563,413.031 424.906,412.371 
		424.25,411.496 423.156,410.844 422.281,409.746 421.625,409.309 420.531,408.656 419,408.656 417.906,408.219 416.813,407.996 
		416.156,407.559 414.625,407.559 413.531,407.559 412.438,407.996 411.344,408.219 410.25,408.656 408.938,408.656 
		408.063,409.309 407.406,409.746 405.875,410.844 405.219,411.496 404.563,412.371 403.688,413.031 403.469,413.684 
		402.594,415.219 402.375,416.309 401.938,416.969 401.5,418.281 401.5,419.594 401.281,420.469 401.5,421.559 401.5,422.871 
		401.938,423.969 402.375,424.844 402.594,426.156 403.469,427.031 403.688,428.121 404.563,429.219 405.219,429.871 
		405.875,430.531 407.406,431.406 408.063,431.621 408.938,432.496 410.25,432.719 411.344,433.156 412.438,433.156 
		413.531,433.809 414.625,433.809 416.156,433.809 416.813,433.156 417.906,433.156 419,432.719 420.531,432.496 421.625,431.621 
		422.281,431.406 423.156,430.531 424.25,429.871 424.906,429.219 425.563,428.121 426.438,427.031 426.875,426.156 
		427.094,424.844 427.531,423.969 427.969,422.871 427.969,421.559 	"/>
	<polygon fill="#A89187" stroke="#000000" stroke-width="1.9705" stroke-linejoin="round" points="425.563,420.684 425.563,419.594 
		425.563,418.496 425.563,417.844 425.344,416.969 424.906,415.871 424.25,415.219 423.813,414.121 423.156,413.469 
		422.719,413.031 421.625,411.934 420.969,411.496 420.094,411.281 419,410.406 418.344,410.184 417.25,409.746 416.156,409.746 
		415.5,409.309 414.406,409.309 413.313,409.309 412.438,409.746 411.344,409.746 410.25,410.184 409.156,410.406 408.5,411.281 
		407.844,411.496 406.75,411.934 405.875,413.031 405.219,413.469 404.781,414.121 404.125,415.219 403.688,415.871 
		403.469,416.969 402.594,417.844 402.594,418.496 402.594,419.594 402.594,420.684 402.594,421.781 402.594,422.871 
		402.594,423.746 403.469,424.844 403.688,425.496 404.125,426.156 404.781,427.246 405.219,428.121 405.875,428.781 
		406.75,429.434 407.844,430.309 408.5,430.531 409.156,431.406 410.25,431.406 411.344,431.621 412.438,432.059 413.313,432.059 
		414.406,432.496 415.5,432.059 416.156,432.059 417.25,431.621 418.344,431.406 419,431.406 420.094,430.531 420.969,430.309 
		421.625,429.434 422.719,428.781 423.156,428.121 423.813,427.246 424.25,426.156 424.906,425.496 425.344,424.844 
		425.563,423.746 425.563,422.871 425.563,421.781 	"/>
	<polygon fill="#A89187" stroke="#000000" stroke-width="1.9705" stroke-linejoin="round" points="417.906,420.469 415.5,417.406 
		411.344,417.406 408.5,420.469 408.5,424.406 411.344,426.594 415.5,426.594 417.906,424.406 	"/>
	<polygon fill="#A89187" stroke="#000000" stroke-width="1.9705" stroke-linejoin="round" points="418.781,418.496 416.156,415.871 
		412.438,415.871 409.594,418.496 409.594,422.656 412.438,425.059 416.156,425.059 418.781,422.656 	"/>
	
		<rect x="697.25" y="430.531" fill="#FFA800" stroke="#000000" stroke-width="1.9705" stroke-linejoin="round" width="31.063" height="122.715"/>
	
		<line fill="none" stroke="#000000" stroke-width="1.9705" stroke-linejoin="round" x1="702.281" y1="432.496" x2="702.281" y2="552.809"/>
	
		<rect x="716.719" y="430.531" fill="#FFA800" stroke="#000000" stroke-width="1.9705" stroke-linejoin="round" width="3.281" height="122.277"/>
	
		<rect x="695.719" y="430.531" fill="#FFA800" stroke="#000000" stroke-width="1.9705" stroke-linejoin="round" width="2.188" height="122.277"/>
	
		<rect x="698.781" y="427.684" fill="#A89187" stroke="#000000" stroke-width="1.9705" stroke-linejoin="round" width="15.313" height="3.938"/>
	<polygon fill="#A89187" stroke="#000000" stroke-width="1.9705" stroke-linejoin="round" points="732.688,421.781 732.688,420.031 
		732.688,418.281 732.25,416.309 731.594,414.559 730.938,413.031 729.844,411.281 728.969,409.746 727.656,408.219 
		726.563,406.906 725.469,405.809 723.5,404.281 722.188,403.621 720.219,402.746 718.469,401.656 716.938,401.434 714.75,400.996 
		713,400.559 711.25,400.559 709.281,400.559 707.531,400.996 705.344,401.434 703.375,401.656 702.063,402.746 700.094,403.621 
		698.781,404.281 696.813,405.809 695.719,406.906 694.406,408.219 693.313,409.746 692.438,411.281 691.344,413.031 
		690.688,414.559 690.031,416.309 689.594,418.281 689.156,420.031 689.156,421.781 689.156,423.746 689.594,425.496 
		690.031,427.246 690.688,429.219 691.344,430.531 692.438,432.496 693.313,433.809 694.406,435.344 695.719,436.871 
		696.813,438.184 698.781,439.059 700.094,440.371 702.063,441.246 703.375,441.469 705.344,442.344 707.531,442.559 
		709.281,442.996 711.25,442.996 713,442.996 714.75,442.559 716.938,442.344 718.469,441.469 720.219,441.246 722.188,440.371 
		723.5,439.059 725.469,438.184 726.563,436.871 727.656,435.344 728.969,433.809 729.844,432.496 730.938,430.531 731.594,429.219 
		732.25,427.246 732.688,425.496 732.688,423.746 	"/>
	<polygon fill="#A89187" stroke="#000000" stroke-width="1.9705" stroke-linejoin="round" points="725.688,421.781 725.688,420.469 
		725.469,419.371 725.469,418.281 725.031,416.969 724.375,415.871 723.938,414.781 723.281,413.684 722.406,412.594 
		721.313,411.496 720.656,410.844 719.563,410.184 718.469,409.309 717.375,408.656 715.844,408.219 714.75,407.996 
		713.656,407.559 712.344,407.559 711.25,407.559 710.156,407.559 708.625,407.559 707.531,407.996 706,408.219 704.906,408.656 
		703.813,409.309 702.281,410.184 701.625,410.844 700.531,411.496 699.875,412.594 699,413.684 698.344,414.781 697.906,415.871 
		697.25,416.969 696.813,418.281 696.594,419.371 696.594,420.469 696.594,421.781 696.594,422.871 696.594,424.406 
		696.813,425.496 697.25,426.594 697.906,427.684 698.344,429.219 699,430.309 699.875,430.969 700.531,431.621 701.625,432.719 
		702.281,433.809 703.813,434.246 704.906,434.684 706,435.344 707.531,435.781 708.625,435.781 710.156,435.996 711.25,435.996 
		712.344,435.996 713.656,435.781 714.75,435.781 715.844,435.344 717.375,434.684 718.469,434.246 719.563,433.809 
		720.656,432.719 721.313,431.621 722.406,430.969 723.281,430.309 723.938,429.219 724.375,427.684 725.031,426.594 
		725.469,425.496 725.469,424.406 725.688,422.871 	"/>
	<polygon fill="#A89187" stroke="#000000" stroke-width="1.9705" stroke-linejoin="round" points="725.031,420.469 725.031,419.594 
		724.594,418.281 724.375,416.969 723.938,416.309 723.5,415.219 723.281,413.684 722.406,413.031 721.75,412.371 721.094,411.496 
		720,410.844 719.125,409.746 718.469,409.309 717.375,408.656 715.844,408.656 714.75,408.219 713.656,407.996 712.563,407.559 
		711.469,407.559 710.375,407.559 709.281,407.996 708.188,408.219 707.094,408.656 706,408.656 704.906,409.309 704.25,409.746 
		702.719,410.844 702.281,411.496 701.188,412.371 700.531,413.031 700.094,413.684 699.438,415.219 699,416.309 698.781,416.969 
		698.344,418.281 698.344,419.594 698.344,420.469 698.344,421.559 698.344,422.871 698.781,423.969 699,424.844 699.438,426.156 
		700.094,427.031 700.531,428.121 701.188,429.219 702.281,429.871 702.719,430.531 704.25,431.406 704.906,431.621 706,432.496 
		707.094,432.719 708.188,433.156 709.281,433.156 710.375,433.809 711.469,433.809 712.563,433.809 713.656,433.156 
		714.75,433.156 715.844,432.719 717.375,432.496 718.469,431.621 719.125,431.406 720,430.531 721.094,429.871 721.75,429.219 
		722.406,428.121 723.281,427.031 723.5,426.156 723.938,424.844 724.375,423.969 724.594,422.871 725.031,421.559 	"/>
	<polygon fill="#A89187" stroke="#000000" stroke-width="1.9705" stroke-linejoin="round" points="722.844,420.684 722.844,419.594 
		722.844,418.496 722.406,417.844 722.188,416.969 721.75,415.871 721.313,415.219 720.656,414.121 720,413.469 719.563,413.031 
		718.906,411.934 717.813,411.496 716.938,411.281 715.844,410.406 715.188,410.184 714.094,409.746 713,409.746 712.344,409.309 
		711.25,409.309 710.156,409.309 709.063,409.746 708.188,409.746 707.094,410.184 706,410.406 705.344,411.281 704.25,411.496 
		703.375,411.934 702.719,413.031 702.281,413.469 701.625,414.121 700.969,415.219 700.531,415.871 700.094,416.969 
		699.875,417.844 699.438,418.496 699.438,419.594 699.438,420.684 699.438,421.781 699.438,422.871 699.875,423.746 
		700.094,424.844 700.531,425.496 700.969,426.156 701.625,427.246 702.281,428.121 702.719,428.781 703.375,429.434 
		704.25,430.309 705.344,430.531 706,431.406 707.094,431.406 708.188,431.621 709.063,432.059 710.156,432.059 711.25,432.496 
		712.344,432.059 713,432.059 714.094,431.621 715.188,431.406 715.844,431.406 716.938,430.531 717.813,430.309 718.906,429.434 
		719.563,428.781 720,428.121 720.656,427.246 721.313,426.156 721.75,425.496 722.188,424.844 722.406,423.746 722.844,422.871 
		722.844,421.781 	"/>
	<polygon fill="#A89187" stroke="#000000" stroke-width="1.9705" stroke-linejoin="round" points="714.75,420.469 712.344,417.406 
		707.969,417.406 705.344,420.469 705.344,424.406 707.969,426.594 712.344,426.594 714.75,424.406 	"/>
	<polygon fill="#A89187" stroke="#000000" stroke-width="1.9705" stroke-linejoin="round" points="715.844,418.496 713,415.871 
		709.063,415.871 706.438,418.496 706.438,422.656 709.063,425.059 713,425.059 715.844,422.656 	"/>
	<polygon fill="#A80000" stroke="#000000" stroke-width="1.9705" stroke-linejoin="round" points="509.563,483.469 509.563,482.371 
		509.344,481.281 509.344,480.184 508.906,479.094 508.469,477.996 507.813,476.906 507.156,476.246 506.281,475.156 
		506.063,474.281 504.969,473.621 504.094,472.969 503,472.531 502.344,471.871 500.813,471.434 499.719,470.996 498.625,470.781 
		497.969,470.344 496.438,470.344 495.344,470.344 494.25,470.781 493.156,470.996 492.063,471.434 490.969,471.871 
		489.875,472.531 488.781,472.969 488.125,473.621 487.031,474.281 486.375,475.156 485.938,476.246 485.281,476.906 
		484.406,477.996 484.406,479.094 483.75,480.184 483.75,481.281 483.313,482.371 483.313,483.469 483.313,484.559 483.75,485.656 
		483.75,486.531 484.406,487.844 484.406,488.934 485.281,489.809 485.938,490.906 486.375,491.559 487.031,492.219 
		488.125,493.309 488.781,493.746 489.875,494.406 490.969,495.281 492.063,495.281 493.156,495.934 494.25,495.934 
		495.344,496.371 496.438,496.371 497.969,496.371 498.625,495.934 499.719,495.934 500.813,495.281 502.344,495.281 503,494.406 
		504.094,493.746 504.969,493.309 506.063,492.219 506.281,491.559 507.156,490.906 507.813,489.809 508.469,488.934 
		508.906,487.844 509.344,486.531 509.344,485.656 509.563,484.559 	"/>
	<polygon fill="#FFA800" stroke="#000000" stroke-width="1.9705" stroke-linejoin="round" points="512.625,476.469 512.625,475.809 
		512.625,474.719 512.188,473.621 511.75,472.531 511.531,470.996 510.656,470.344 510,469.684 509.563,468.594 508.906,467.719 
		507.813,467.059 507.156,466.406 506.063,465.531 504.969,465.309 504.094,464.434 503,464.434 501.906,464.219 500.594,464.219 
		499.5,464.219 498.406,464.219 497.313,464.219 496.219,464.434 495.125,464.434 494.031,465.309 493.156,465.531 491.844,466.406 
		490.969,467.059 490.313,467.719 489.219,468.594 488.781,469.684 488.125,470.344 487.688,470.996 487.031,472.531 
		487.031,473.621 486.594,474.719 486.375,475.809 486.375,476.469 486.375,477.559 486.594,479.094 487.031,479.746 
		487.031,481.059 487.688,482.156 488.125,483.469 488.781,483.906 489.219,484.996 490.313,485.656 490.969,486.531 
		491.844,487.621 493.156,487.621 494.031,488.281 495.125,488.934 496.219,488.934 497.313,489.371 498.406,489.371 499.5,489.371 
		500.594,489.371 501.906,489.371 503,488.934 504.094,488.934 504.969,488.281 506.063,487.621 507.156,487.621 507.813,486.531 
		508.906,485.656 509.563,484.996 510,483.906 510.656,483.469 511.531,482.156 511.75,481.059 512.188,479.746 512.625,479.094 
		512.625,477.559 	"/>
	<polygon fill="#A80000" stroke="#000000" stroke-width="1.9705" stroke-linejoin="round" points="647.156,482.371 647.156,481.281 
		646.938,480.621 646.938,479.094 646.063,477.996 646.063,477.344 645.406,475.809 644.75,475.156 643.875,474.281 
		643.656,473.184 642.563,472.531 641.469,471.871 640.594,471.434 639.5,470.781 638.406,470.344 637.313,469.906 636.219,469.684 
		635.563,469.684 634.031,469.684 632.938,469.684 631.844,469.684 630.75,469.906 629.656,470.344 628.563,470.781 
		627.469,471.434 626.375,471.871 625.281,472.531 624.625,473.184 623.969,474.281 623.094,475.156 622.875,475.809 622,477.344 
		621.781,477.996 621.344,479.094 621.344,480.621 620.906,481.281 620.906,482.371 620.906,483.469 621.344,484.559 
		621.344,485.656 621.781,486.746 622,487.844 622.875,488.934 623.094,489.809 623.969,490.906 624.625,491.559 625.281,492.219 
		626.375,493.094 627.469,493.746 628.563,494.184 629.656,494.406 630.75,494.844 631.844,495.281 632.938,495.281 
		634.031,495.281 635.563,495.281 636.219,495.281 637.313,494.844 638.406,494.406 639.5,494.184 640.594,493.746 641.469,493.094 
		642.563,492.219 643.656,491.559 643.875,490.906 644.75,489.809 645.406,488.934 646.063,487.844 646.063,486.746 
		646.938,485.656 646.938,484.559 647.156,483.469 	"/>
	<polygon fill="#FFA800" stroke="#000000" stroke-width="1.9705" stroke-linejoin="round" points="650.219,475.809 650.219,474.719 
		650.219,473.621 649.781,472.531 649.563,471.434 648.688,470.344 648.25,469.684 647.594,468.594 647.156,467.496 
		646.063,466.621 645.406,465.969 644.313,465.309 643.656,464.871 642.563,464.219 641.469,463.344 640.375,463.344 639.5,463.121 
		638.188,463.121 637.094,463.121 636,463.121 634.906,463.121 633.813,463.344 632.719,463.344 631.625,464.219 630.531,464.871 
		629.438,465.309 628.563,465.969 627.469,466.621 627.25,467.496 626.156,468.594 625.719,469.684 625.063,470.344 
		624.625,471.434 624.625,472.531 624.188,473.621 623.969,474.719 623.969,475.809 623.969,476.906 624.188,477.996 
		624.625,479.094 624.625,480.184 625.063,481.059 625.719,482.156 626.156,483.246 627.25,483.906 627.469,484.559 
		628.563,485.656 629.438,486.094 630.531,486.746 631.625,487.621 632.719,487.844 633.813,487.844 634.906,488.281 636,488.719 
		637.094,488.719 638.188,488.719 639.5,488.281 640.375,487.844 641.469,487.844 642.563,487.621 643.656,486.746 644.313,486.094 
		645.406,485.656 646.063,484.559 647.156,483.906 647.594,483.246 648.25,482.156 648.688,481.059 649.563,480.184 
		649.781,479.094 650.219,477.996 650.219,476.906 	"/>
	<polygon fill="#FFA800" points="226.281,422.871 228.469,428.781 213.594,438.184 211.406,431.621 	"/>
	<polygon fill="none" stroke="#000000" stroke-width="1.9705" stroke-linejoin="round" points="226.281,422.871 228.469,428.781 
		213.594,438.184 211.406,431.621 	"/>
	<polygon fill="#FFA800" points="175.969,588.684 179.906,584.969 190.188,602.031 186.25,605.746 	"/>
	<polygon fill="none" stroke="#000000" stroke-width="1.9705" stroke-linejoin="round" points="175.969,588.684 179.906,584.969 
		190.188,602.031 186.25,605.746 	"/>
	<polygon fill="#FFA800" points="166.781,555.871 171.594,553.906 175.531,574.031 170.938,575.559 	"/>
	<polygon fill="none" stroke="#000000" stroke-width="1.9705" stroke-linejoin="round" points="166.781,555.871 171.594,553.906 
		175.531,574.031 170.938,575.559 	"/>
	<polygon fill="#FFA800" stroke="#000000" stroke-width="1.9705" stroke-linejoin="round" points="203.75,437.094 206.594,442.996 
		193.906,455.684 190.625,450.219 	"/>
	<polygon fill="#FFA800" stroke="#000000" stroke-width="1.9705" stroke-linejoin="round" points="184.719,458.969 189.094,462.246 
		181,480.621 176.625,477.344 	"/>
	<polygon fill="#FFA800" stroke="#000000" stroke-width="1.9705" stroke-linejoin="round" points="171.594,486.746 176.625,488.719 
		172.031,509.059 167.219,506.871 	"/>
	<polygon fill="#FFA800" stroke="#000000" stroke-width="1.9705" stroke-linejoin="round" points="165.031,518.906 169.844,518.906 
		170.5,539.684 165.469,539.684 	"/>
	<polygon fill="#FFA800" points="255.156,410.844 256.688,416.969 240.5,423.309 239.188,416.746 	"/>
	<polygon fill="none" stroke="#000000" stroke-width="1.9705" stroke-linejoin="round" points="255.156,410.844 256.688,416.969 
		240.5,423.309 239.188,416.746 	"/>
	<polygon fill="#FFA800" points="283.594,406.469 284.031,413.469 267.188,415.219 267.188,408.656 	"/>
	<polygon fill="none" stroke="#000000" stroke-width="1.9705" stroke-linejoin="round" points="283.594,406.469 284.031,413.469 
		267.188,415.219 267.188,408.656 	"/>
	<polygon fill="#FFA800" points="312.031,402.531 312.469,409.094 296.063,411.281 295.406,404.281 	"/>
	<polygon fill="none" stroke="#000000" stroke-width="1.9705" stroke-linejoin="round" points="312.031,402.531 312.469,409.094 
		296.063,411.281 295.406,404.281 	"/>
	<polygon fill="#FFA800" points="340.688,397.719 340.906,404.719 323.844,405.371 323.844,398.371 	"/>
	<polygon fill="none" stroke="#000000" stroke-width="1.9705" stroke-linejoin="round" points="340.688,397.719 340.906,404.719 
		323.844,405.371 323.844,398.371 	"/>
	<polygon fill="#FFA800" points="369.125,393.344 369.125,400.344 352.719,401.434 352.281,394.434 	"/>
	<polygon fill="none" stroke="#000000" stroke-width="1.9705" stroke-linejoin="round" points="369.125,393.344 369.125,400.344 
		352.719,401.434 352.281,394.434 	"/>
	<polygon fill="#FFA800" points="398.656,389.621 398.656,396.621 381.813,397.719 381.813,390.719 	"/>
	<polygon fill="none" stroke="#000000" stroke-width="1.9705" stroke-linejoin="round" points="398.656,389.621 398.656,396.621 
		381.813,397.719 381.813,390.719 	"/>
	<polygon fill="#FFA800" points="776.219,391.156 775.344,398.156 758.938,395.531 759.594,388.531 	"/>
	<polygon fill="none" stroke="#000000" stroke-width="1.9705" stroke-linejoin="round" points="776.219,391.156 775.344,398.156 
		758.938,395.531 759.594,388.531 	"/>
	<polygon fill="#FFA800" points="807.938,400.559 806.406,407.121 790.656,402.094 792.188,394.871 	"/>
	<polygon fill="none" stroke="#000000" stroke-width="1.9705" stroke-linejoin="round" points="807.938,400.559 806.406,407.121 
		790.656,402.094 792.188,394.871 	"/>
	<polygon fill="#FFA800" stroke="#000000" stroke-width="1.9705" stroke-linejoin="round" points="428.188,388.969 427.969,395.969 
		411.781,395.531 411.781,388.969 	"/>
	<polygon fill="#FFA800" stroke="#000000" stroke-width="1.9705" stroke-linejoin="round" points="457.5,388.969 457.063,395.969 
		441.094,395.531 441.094,388.969 	"/>
	<polygon fill="#FFA800" stroke="#000000" stroke-width="1.9705" stroke-linejoin="round" points="485.938,388.969 485.938,395.969 
		469.531,395.531 469.75,388.969 	"/>
	<polygon fill="#FFA800" stroke="#000000" stroke-width="1.9705" stroke-linejoin="round" points="514.375,388.969 514.375,395.969 
		497.969,395.531 498.406,388.969 	"/>
	<polygon fill="#FFA800" stroke="#000000" stroke-width="1.9705" stroke-linejoin="round" points="543.688,388.969 543.688,395.969 
		527.063,395.531 527.5,388.969 	"/>
	<polygon fill="#FFA800" stroke="#000000" stroke-width="1.9705" stroke-linejoin="round" points="572.781,388.969 572.344,395.969 
		556.813,395.531 556.813,388.969 	"/>
	<polygon fill="#FFA800" stroke="#000000" stroke-width="1.9705" stroke-linejoin="round" points="601.219,388.969 601,395.969 
		584.813,395.531 585.25,388.969 	"/>
	<polygon fill="#FFA800" stroke="#000000" stroke-width="1.9705" stroke-linejoin="round" points="629.656,388.969 629.438,395.969 
		613.031,395.531 613.688,388.969 	"/>
	<polygon fill="#FFA800" stroke="#000000" stroke-width="1.9705" stroke-linejoin="round" points="658.531,388.969 658.531,395.969 
		642.563,395.531 642.563,388.969 	"/>
	<polygon fill="#FFA800" stroke="#000000" stroke-width="1.9705" stroke-linejoin="round" points="688.063,388.969 687.844,395.969 
		671.656,395.531 671.656,388.969 	"/>
	<polygon fill="#FFA800" stroke="#000000" stroke-width="1.9705" stroke-linejoin="round" points="717.375,388.969 717.375,395.969 
		701.188,395.531 701.188,388.969 	"/>
	<polygon fill="#FFA800" stroke="#000000" stroke-width="1.9705" stroke-linejoin="round" points="746.906,388.969 746.469,395.969 
		730.5,395.531 730.938,388.969 	"/>
	<polygon fill="#FFA800" points="836.375,409.746 835.281,416.309 819.531,411.281 820.625,404.281 	"/>
	<polygon fill="none" stroke="#000000" stroke-width="1.9705" stroke-linejoin="round" points="836.375,409.746 835.281,416.309 
		819.531,411.281 820.625,404.281 	"/>
	<polygon fill="#FFA800" points="864.375,417.844 863.063,424.406 846.875,418.934 848.406,412.371 	"/>
	<polygon fill="none" stroke="#000000" stroke-width="1.9705" stroke-linejoin="round" points="864.375,417.844 863.063,424.406 
		846.875,418.934 848.406,412.371 	"/>
	<polygon fill="#FFA800" points="896.969,428.344 895.438,434.906 879.906,429.871 881,422.871 	"/>
	<polygon fill="none" stroke="#000000" stroke-width="1.9705" stroke-linejoin="round" points="896.969,428.344 895.438,434.906 
		879.906,429.871 881,422.871 	"/>
	<polygon fill="#FFA800" stroke="#000000" stroke-width="1.9705" stroke-linejoin="round" points="926.5,446.719 923.875,453.281 
		909.438,442.344 912.281,435.996 	"/>
	<polygon fill="#FFA800" points="916.656,622.156 913.375,616.031 922.563,606.621 926.063,612.746 	"/>
	<polygon fill="none" stroke="#000000" stroke-width="1.9705" stroke-linejoin="round" points="916.656,622.156 913.375,616.031 
		922.563,606.621 926.063,612.746 	"/>
	<polygon fill="#FFA800" points="954.281,544.059 948.813,543.844 950.344,521.746 955.375,522.621 	"/>
	<polygon fill="none" stroke="#000000" stroke-width="1.9705" stroke-linejoin="round" points="954.281,544.059 948.813,543.844 
		950.344,521.746 955.375,522.621 	"/>
	
		<line fill="none" stroke="#000000" stroke-width="1.9705" stroke-linejoin="round" x1="948.813" y1="540.344" x2="947.719" y2="558.281"/>
	<polygon fill="#FFA800" points="953.188,509.496 947.719,510.594 945.094,489.371 950.563,488.281 	"/>
	<polygon fill="none" stroke="#000000" stroke-width="1.9705" stroke-linejoin="round" points="953.188,509.496 947.719,510.594 
		945.094,489.371 950.563,488.281 	"/>
	
		<line fill="none" stroke="#000000" stroke-width="1.9705" stroke-linejoin="round" x1="946.625" y1="507.969" x2="948.813" y2="525.031"/>
	<polygon fill="#FFA800" points="944.438,580.156 939.406,577.309 945.531,557.184 950.563,560.246 	"/>
	<polygon fill="none" stroke="#000000" stroke-width="1.9705" stroke-linejoin="round" points="944.438,580.156 939.406,577.309 
		945.531,557.184 950.563,560.246 	"/>
	<polygon fill="#FFA800" points="942.688,474.281 938.313,478.434 928.688,460.934 933.063,456.781 	"/>
	<polygon fill="none" stroke="#000000" stroke-width="1.9705" stroke-linejoin="round" points="942.688,474.281 938.313,478.434 
		928.688,460.934 933.063,456.781 	"/>
	
		<line fill="none" stroke="#000000" stroke-width="1.9705" stroke-linejoin="round" x1="936.344" y1="476.246" x2="944.438" y2="491.121"/>
	
		<line fill="none" stroke="#000000" stroke-width="1.9705" stroke-linejoin="round" x1="939.625" y1="574.469" x2="934.594" y2="591.094"/>
	<polygon fill="#FFA800" points="933.063,604.219 927.594,600.719 933.5,587.156 938.969,590.434 	"/>
	<polygon fill="none" stroke="#000000" stroke-width="1.9705" stroke-linejoin="round" points="933.063,604.219 927.594,600.719 
		933.5,587.156 938.969,590.434 	"/>
	
		<line fill="none" stroke="#000000" stroke-width="1.9705" stroke-linejoin="round" x1="870.281" y1="627.621" x2="856.5" y2="627.621"/>
	<polygon fill="#FFA800" points="895.438,631.781 893.031,624.344 903.969,619.309 906.813,626.531 	"/>
	<polygon fill="none" stroke="#000000" stroke-width="1.9705" stroke-linejoin="round" points="895.438,631.781 893.031,624.344 
		903.969,619.309 906.813,626.531 	"/>
	<polygon fill="#FFA800" points="868.531,636.809 867.438,629.594 884.281,626.969 885.375,634.184 	"/>
	<polygon fill="none" stroke="#000000" stroke-width="1.9705" stroke-linejoin="round" points="868.531,636.809 867.438,629.594 
		884.281,626.969 885.375,634.184 	"/>
	
		<rect x="837.906" y="629.809" fill="#FFA800" stroke="#000000" stroke-width="1.9705" stroke-linejoin="round" width="17.063" height="7.66"/>
	
		<rect x="807.938" y="629.809" fill="#FFA800" stroke="#000000" stroke-width="1.9705" stroke-linejoin="round" width="17.063" height="7.66"/>
	
		<rect x="777.969" y="629.809" fill="#FFA800" stroke="#000000" stroke-width="1.9705" stroke-linejoin="round" width="16.844" height="7.66"/>
	
		<rect x="747.563" y="629.594" fill="#FFA800" stroke="#000000" stroke-width="1.9705" stroke-linejoin="round" width="17.281" height="7.652"/>
	
		<rect x="719.563" y="629.594" fill="#FFA800" stroke="#000000" stroke-width="1.9705" stroke-linejoin="round" width="17.063" height="7.652"/>
	
		<rect x="688.5" y="629.594" fill="#FFA800" stroke="#000000" stroke-width="1.9705" stroke-linejoin="round" width="17.281" height="7.652"/>
	
		<rect x="658.531" y="629.156" fill="#FFA800" stroke="#000000" stroke-width="1.9705" stroke-linejoin="round" width="17.281" height="7.652"/>
	
		<rect x="627.906" y="629.594" fill="#FFA800" stroke="#000000" stroke-width="1.9705" stroke-linejoin="round" width="17.063" height="7.652"/>
	
		<rect x="597.938" y="629.594" fill="#FFA800" stroke="#000000" stroke-width="1.9705" stroke-linejoin="round" width="17.281" height="7.652"/>
	
		<rect x="566.219" y="629.594" fill="#FFA800" stroke="#000000" stroke-width="1.9705" stroke-linejoin="round" width="17.063" height="7.652"/>
	
		<rect x="536.25" y="630.246" fill="#FFA800" stroke="#000000" stroke-width="1.9705" stroke-linejoin="round" width="17.281" height="7"/>
	
		<rect x="506.281" y="630.246" fill="#FFA800" stroke="#000000" stroke-width="1.9705" stroke-linejoin="round" width="16.844" height="7"/>
	
		<rect x="476.094" y="630.246" fill="#FFA800" stroke="#000000" stroke-width="1.9705" stroke-linejoin="round" width="16.844" height="7"/>
	
		<rect x="447.219" y="630.246" fill="#FFA800" stroke="#000000" stroke-width="1.9705" stroke-linejoin="round" width="16.844" height="7"/>
	
		<rect x="416.156" y="630.246" fill="#FFA800" stroke="#000000" stroke-width="1.9705" stroke-linejoin="round" width="17.281" height="7"/>
	
		<rect x="385.531" y="630.246" fill="#FFA800" stroke="#000000" stroke-width="1.9705" stroke-linejoin="round" width="17.063" height="7"/>
	
		<rect x="355.125" y="630.246" fill="#FFA800" stroke="#000000" stroke-width="1.9705" stroke-linejoin="round" width="17.281" height="7"/>
	
		<rect x="324.5" y="630.246" fill="#FFA800" stroke="#000000" stroke-width="1.9705" stroke-linejoin="round" width="16.844" height="7"/>
	
		<rect x="292.344" y="630.246" fill="#FFA800" stroke="#000000" stroke-width="1.9705" stroke-linejoin="round" width="17.281" height="7"/>
	
		<rect x="261.719" y="630.246" fill="#FFA800" stroke="#000000" stroke-width="1.9705" stroke-linejoin="round" width="16.844" height="7"/>
	<polygon fill="#FFA800" points="226.281,635.281 227.156,628.059 243.781,630.684 243.563,637.906 	"/>
	<polygon fill="none" stroke="#000000" stroke-width="1.9705" stroke-linejoin="round" points="226.281,635.281 227.156,628.059 
		243.781,630.684 243.563,637.906 	"/>
	<polygon fill="#FFA800" stroke="#000000" stroke-width="1.9705" stroke-linejoin="round" points="195.219,616.469 198.281,610.559 
		211.844,621.496 209.219,626.969 	"/>
	
		<line fill="none" stroke="#000000" stroke-width="1.9705" stroke-linejoin="round" x1="385.531" y1="402.094" x2="251.875" y2="424.844"/>
	<polyline fill="none" stroke="#000000" stroke-width="1.9705" stroke-linejoin="round" points="226.281,626.969 241.375,629.156 
		227.156,626.969 	"/>
	<polygon fill="#FFA800" stroke="#000000" stroke-width="1.9705" stroke-linejoin="round" points="375.25,419.371 375.25,418.281 
		375.031,416.746 375.031,415.871 374.594,414.781 374.156,413.684 373.5,412.594 372.844,411.934 372.406,411.281 371.313,410.184 
		370.875,409.309 369.781,408.656 368.688,408.219 367.594,407.559 366.5,407.121 365.406,406.906 364.75,406.906 363.656,406.469 
		362.125,406.469 361.031,406.469 359.938,406.906 358.844,406.906 357.75,407.121 356.656,407.559 356,408.219 354.906,408.656 
		353.813,409.309 352.938,410.184 352.281,411.281 351.625,411.934 350.75,412.594 350.531,413.684 350.094,414.781 
		349.656,415.871 349.438,416.746 349.438,418.281 349,419.371 349.438,420.469 349.438,421.559 349.656,422.219 350.094,423.746 
		350.531,424.406 350.75,425.496 351.625,426.156 352.281,427.246 352.938,428.121 353.813,428.781 354.906,429.434 356,430.309 
		356.656,430.531 357.75,431.406 358.844,431.406 359.938,431.621 361.031,431.621 362.125,431.621 363.656,431.621 364.75,431.621 
		365.406,431.406 366.5,431.406 367.594,430.531 368.688,430.309 369.781,429.434 370.875,428.781 371.313,428.121 372.406,427.246 
		372.844,426.156 373.5,425.496 374.156,424.406 374.594,423.746 375.031,422.219 375.031,421.559 375.25,420.469 	"/>
	<rect x="203.313" y="231.031" stroke="#A80000" stroke-width="1.9705" stroke-linejoin="round" width="222.031" height="8.965"/>
	<rect x="203.313" y="248.531" stroke="#A80000" stroke-width="1.9705" stroke-linejoin="round" width="222.031" height="9.402"/>
	<rect x="203.313" y="266.031" stroke="#A80000" stroke-width="1.9705" stroke-linejoin="round" width="222.25" height="8.965"/>
	<rect x="203.313" y="283.531" stroke="#A80000" stroke-width="1.9705" stroke-linejoin="round" width="222.25" height="9.402"/>
	<rect x="203.313" y="301.031" stroke="#A80000" stroke-width="1.9705" stroke-linejoin="round" width="222.031" height="9.402"/>
	<rect x="203.313" y="318.531" stroke="#A80000" stroke-width="1.9705" stroke-linejoin="round" width="222.031" height="9.402"/>
	<rect x="203.313" y="336.031" stroke="#A80000" stroke-width="1.9705" stroke-linejoin="round" width="222.031" height="9.188"/>
	
		<line fill="none" stroke="#000000" stroke-width="1.9705" stroke-linejoin="round" x1="204.188" y1="240.434" x2="425.344" y2="240.434"/>
	
		<line fill="none" stroke="#000000" stroke-width="1.9705" stroke-linejoin="round" x1="204.188" y1="258.594" x2="424.25" y2="258.594"/>
	
		<line fill="none" stroke="#000000" stroke-width="1.9705" stroke-linejoin="round" x1="204.188" y1="275.871" x2="424.25" y2="275.871"/>
	
		<line fill="none" stroke="#000000" stroke-width="1.9705" stroke-linejoin="round" x1="204.188" y1="292.934" x2="424.25" y2="292.934"/>
	
		<line fill="none" stroke="#000000" stroke-width="1.9705" stroke-linejoin="round" x1="203.313" y1="310.434" x2="423.813" y2="310.434"/>
	
		<line fill="none" stroke="#000000" stroke-width="1.9705" stroke-linejoin="round" x1="202.219" y1="327.934" x2="423.156" y2="327.934"/>
	
		<line fill="none" stroke="#000000" stroke-width="1.9705" stroke-linejoin="round" x1="201.563" y1="345.434" x2="422.063" y2="345.434"/>
</g>
</svg>
